<?xml version="1.0" encoding="utf-8"?>
<!-- Generator: Adobe Illustrator 19.0.0, SVG Export Plug-In . SVG Version: 6.00 Build 0)  -->
<svg version="1.1" id="Layer_1" xmlns="http://www.w3.org/2000/svg" xmlns:xlink="http://www.w3.org/1999/xlink" x="0px" y="0px"
	 viewBox="0 0 1200 1000" style="enable-background:new 0 0 1200 1000;" xml:space="preserve">
<style type="text/css">
	.st0{fill:#19182D;}
	.st1{fill:#00609E;}
</style>
<g>
	<g>
		<g>
			<path class="st0" d="M277.9,473.5c-8.8-36.5,29.1-60,30.1-60.6c-59.1,23.3-50.8,78-50.5,79.4c7.8,38.8,37.3,56.6,37.3,56.6
				l3.7-4.2l3.4,2.7l6.2-7l-3.1-1.2l9.1-8.4l-5.1-2.5l5.4-6.1l6.3,2.6l6.7-6.5C284.2,507.2,277.9,473.5,277.9,473.5z M301.5,527.1
				l-4.7-2.1l2.1-4.7l4.7,2.1L301.5,527.1z"/>
			<path class="st0" d="M367.1,416.6c-21.3,1.1-35,7.8-43.6,14.9c-19,13.5-19.4,40.3-19.4,41.9c0,0,0,0.1,0,0.1
				c-0.7,20.6,10.8,32.8,10.8,32.8c-23-12.4-29.6-28.2-30.6-40.9c-1-14,5-27.4,15.3-36.8C326.1,404.4,367.1,416.6,367.1,416.6z"/>
			<path class="st0" d="M316.6,453.9c0,0,39.8-39.4,87.6-6c0,0-15.5-25.6-45.2-23.1C359,424.8,326.4,428.2,316.6,453.9z"/>
			<path class="st0" d="M315.2,538.9c0-0.4,6.1-8.4,6.1-8.4l8.5,4.2l-6.1,7.9L315.2,538.9z"/>
			<path class="st0" d="M319.4,550.8c0-0.4,5-6.8,5-6.8l6.9,3.4l-5,6.5L319.4,550.8z"/>
			<polygon class="st0" points="333.6,529.8 337.8,523.7 343.9,527.1 338.7,532.8 			"/>
		</g>
		<g>
			<g>
				<g>
					<g>
						<path class="st1" d="M419.8,507.7c-7.8-38.8-37.3-56.6-37.3-56.6l-3.7,4.2l-3.4-2.7l-6.2,7l3.1,1.2l-9.1,8.4l5.1,2.5l-5.4,6.1
							l-6.3-2.6l-6.7,6.5c43.3,11.1,49.6,44.8,49.6,44.8c8.7,36-28,59.3-30.1,60.6C428.5,563.8,420.1,509.2,419.8,507.7z
							 M378.5,479.8l-4.7-2.1l2.1-4.7l4.7,2.1L378.5,479.8z"/>
					</g>
				</g>
				<g>
					<path class="st1" d="M310.3,583.5c21.3-1.1,35-7.8,43.6-14.9c19-13.5,19.4-40.3,19.4-41.9c0,0,0-0.1,0-0.1
						c0.7-20.6-10.8-32.8-10.8-32.8c23,12.4,29.6,28.2,30.6,40.9c1,14-5,27.4-15.3,36.8C351.3,595.6,310.3,583.5,310.3,583.5z"/>
				</g>
				<g>
					<path class="st1" d="M360.8,546.2c0,0-39.8,39.4-87.6,6c0,0,15.5,25.6,45.2,23.1C318.4,575.2,351,571.9,360.8,546.2z"/>
				</g>
				<g>
					<path class="st1" d="M362.2,461.1c0,0.4-6.1,8.4-6.1,8.4l-8.5-4.2l6.1-7.9L362.2,461.1z"/>
				</g>
				<g>
					<path class="st1" d="M358,449.2c0,0.4-5,6.8-5,6.8l-6.9-3.4l5-6.5L358,449.2z"/>
				</g>
				<g>
					<polygon class="st1" points="343.8,470.3 339.6,476.4 333.5,473 338.6,467.3 					"/>
				</g>
			</g>
		</g>
	</g>
	<g>
		<path class="st0" d="M522.3,507.1c-0.2,20.7-12.9,41.4-41.1,41.4c-28.2,0-41.2-20.3-41.2-41.3c0-21.1,13.5-42.2,41.2-42.2
			C508.8,465,522.5,486.1,522.3,507.1z M454.9,507.4c0.3,13.2,7.4,27.2,26.3,27.2c18.9,0,26-14.2,26.2-27.4
			c0.2-13.5-7.3-28.6-26.2-28.6C462.3,478.7,454.5,493.9,454.9,507.4z"/>
		<path class="st0" d="M532.4,570.3v-80h13.1l0.9,7.8c4.4-6.3,11.9-9,18.3-9c17.4,0,29,12.9,29,29.5c0,16.5-10.4,29.5-28.5,29.5
			c-6,0-14.8-1.8-18.8-8v30.2H532.4z M579.7,518.5c0-8.8-6-16-16-16s-16,7.2-16,16c0,8.8,6.5,16,16,16
			C573.1,534.6,579.7,527.4,579.7,518.5z"/>
		<path class="st0" d="M623.6,474.4v16h15.6v12h-15.7v24.4c0,5.4,3,8,7.3,8c2.2,0,4.7-0.7,6.8-1.7l3.9,11.9c-4,1.6-7.3,2.3-11.6,2.4
			c-12.2,0.5-20.3-6.5-20.3-20.6v-24.4h-10.5v-12h10.5v-14.5L623.6,474.4z"/>
		<path class="st0" d="M664.8,474.4c0,10.9-16.5,10.9-16.5,0C648.3,463.5,664.8,463.5,664.8,474.4z M649.6,490v56.7h14V490H649.6z"
			/>
		<path class="st0" d="M713.7,546.7v-30.2c0-7.4-3.9-14.2-11.6-14.2c-7.6,0-12,6.8-12,14.2v30.2h-14v-56.6h12.9l1,6.9
			c3-5.7,9.5-7.8,14.9-7.8c6.8,0,13.5,2.7,16.7,10.5c5-8,11.6-10.3,18.9-10.3c16,0,23.9,9.8,23.9,26.8v30.5h-14v-30.5
			c0-7.4-3.1-13.7-10.6-13.7c-7.6,0-12.2,6.5-12.2,14v30.2H713.7z"/>
		<path class="st1" d="M836.7,531.6h-41.9l-6.9,15.1h-16.4l35.9-80.1h16.5l35.9,80.1h-16.5L836.7,531.6z M815.7,483.4l-14.9,34.1
			h29.8L815.7,483.4z"/>
		<path class="st1" d="M879.5,474.4v16H895v12h-15.7v24.4c0,5.4,3,8,7.3,8c2.2,0,4.7-0.7,6.8-1.7l3.9,11.9c-4,1.6-7.3,2.3-11.6,2.4
			c-12.2,0.5-20.3-6.5-20.3-20.6v-24.4H855v-12h10.5v-14.5L879.5,474.4z"/>
		<path class="st1" d="M925.1,474.4v16h15.6v12H925v24.4c0,5.4,3,8,7.3,8c2.2,0,4.7-0.7,6.8-1.7L943,545c-4,1.6-7.3,2.3-11.6,2.4
			c-12.2,0.5-20.3-6.5-20.3-20.6v-24.4h-10.5v-12h10.5v-14.5L925.1,474.4z"/>
	</g>
</g>
</svg>
